<svg xmlns="http://www.w3.org/2000/svg" viewBox="0 0 178.78 218.93"><defs><style>.cls-1{fill:#282828;}.cls-2{fill:#ff8500;}</style></defs><g id="Layer_2" data-name="Layer 2"><g id="Layer_1-2" data-name="Layer 1"><path class="cls-1" d="M3.74,28.49A17.64,17.64,0,0,1,31.56,6.79l50,64c.38.49.81,1,1.23,1.45a37,37,0,0,0-28,21.83,13,13,0,0,0-1.07-1.58Z"/><path class="cls-1" d="M175,190.42a17.64,17.64,0,1,1-27.78,21.74l-50-64a15.69,15.69,0,0,0-2.85-2.85A37,37,0,0,0,122.92,123a18.25,18.25,0,0,0,2.07,3.38Z"/><path class="cls-1" d="M84.07,145.55a15.89,15.89,0,0,0-2.48,2.57l-50,64A17.65,17.65,0,0,1,3.74,190.42l50-64a17.19,17.19,0,0,0,1.33-2,36.92,36.92,0,0,0,29,21.11"/><path class="cls-1" d="M95.61,72.59a15.86,15.86,0,0,0,1.61-1.76l50-64A17.63,17.63,0,1,1,175,28.49l-50,64a16.77,16.77,0,0,0-1.86,3A37,37,0,0,0,95.61,72.59"/><path class="cls-2" d="M112.64,109.46A23.25,23.25,0,1,1,89.39,86.21a23.25,23.25,0,0,1,23.25,23.25"/></g></g></svg>